<?xml version="1.0" standalone="no"?><!DOCTYPE svg PUBLIC "-//W3C//DTD SVG 1.1//EN" "http://www.w3.org/Graphics/SVG/1.1/DTD/svg11.dtd"><svg t="1605851744989" class="icon" viewBox="0 0 1024 1024" version="1.1" xmlns="http://www.w3.org/2000/svg" p-id="1171" xmlns:xlink="http://www.w3.org/1999/xlink" width="48" height="48"><defs><style type="text/css"></style></defs><path d="M512 64c247.424 0 448 200.576 448 448S759.424 960 512 960 64 759.424 64 512 264.576 64 512 64z m0 68c-209.868 0-380 170.132-380 380s170.132 380 380 380 380-170.132 380-380-170.132-380-380-380z m0 180c17.673 0 32 14.327 32 32v136h136c17.673 0 32 14.327 32 32 0 17.673-14.327 32-32 32H544v136c0 17.673-14.327 32-32 32-17.673 0-32-14.327-32-32V544H344c-17.673 0-32-14.327-32-32 0-17.673 14.327-32 32-32h136V344c0-17.673 14.327-32 32-32z" p-id="1172" fill="#707070"></path></svg>