<?xml version="1.0" standalone="no"?><!DOCTYPE svg PUBLIC "-//W3C//DTD SVG 1.1//EN" "http://www.w3.org/Graphics/SVG/1.1/DTD/svg11.dtd"><svg t="1605778171276" class="icon" viewBox="0 0 1024 1024" version="1.1" xmlns="http://www.w3.org/2000/svg" p-id="2949" xmlns:xlink="http://www.w3.org/1999/xlink" width="48" height="48"><defs><style type="text/css"></style></defs><path d="M846.8 954.3H177.4c-25.8 0-46.9-21-46.9-46.9v-723c0-25.8 21-46.9 46.9-46.9h669.5c25.8 0 46.9 21 46.9 46.9v723c-0.1 25.9-21.1 46.9-47 46.9zM177.4 177.7c-3.7 0-6.7 3-6.7 6.7v723c0 3.7 3 6.7 6.7 6.7h669.5c3.7 0 6.7-3 6.7-6.7v-723c0-3.7-3-6.7-6.7-6.7H177.4z" fill="#4F4F4F" p-id="2950"></path><path d="M873.6 371.8h-723c-11.1 0-20.1-9-20.1-20.1s9-20.1 20.1-20.1h723c11.1 0 20.1 9 20.1 20.1s-9 20.1-20.1 20.1zM726.3 566H297.9c-11.1 0-20.1-9-20.1-20.1 0-11.1 9-20.1 20.1-20.1h428.5c11.1 0 20.1 9 20.1 20.1-0.1 11.1-9.1 20.1-20.2 20.1zM726.3 766.8H297.9c-11.1 0-20.1-9-20.1-20.1s9-20.1 20.1-20.1h428.5c11.1 0 20.1 9 20.1 20.1s-9.1 20.1-20.2 20.1zM338 264.7c-11.1 0-20.1-9-20.1-20.1V84c0-11.1 9-20.1 20.1-20.1s20.1 9 20.1 20.1v160.7c0 11-9 20-20.1 20zM686.2 264.7c-11.1 0-20.1-9-20.1-20.1V84c0-11.1 9-20.1 20.1-20.1s20.1 9 20.1 20.1v160.7c0 11-9 20-20.1 20z" fill="#4F4F4F" p-id="2951"></path></svg>