<?xml version="1.0" standalone="no"?><!DOCTYPE svg PUBLIC "-//W3C//DTD SVG 1.1//EN" "http://www.w3.org/Graphics/SVG/1.1/DTD/svg11.dtd"><svg t="1605768356526" class="icon" viewBox="0 0 1024 1024" version="1.1" xmlns="http://www.w3.org/2000/svg" p-id="7072" xmlns:xlink="http://www.w3.org/1999/xlink" width="48" height="48"><defs><style type="text/css"></style></defs><path d="M996.2 873.2H93.7c-45.2 0-81.9-36.7-81.9-81.9V163.6c0-11 9-20 20-20s20 9 20 20v627.7c0 23.1 18.8 41.9 41.9 41.9h902.5c11 0 20 9 20 20s-9 20-20 20z" fill="#2c2c2c" p-id="7073"></path><path d="M351.5 873.2H203.7c-11 0-20-9-20-20V481.9c0-11 9-20 20-20h147.9c11 0 20 9 20 20v371.3c-0.1 11.1-9 20-20.1 20z m-127.8-40h107.9V501.9H223.7v331.3zM604.2 873.2H456.4c-11 0-20-9-20-20V207.8c0-11 9-20 20-20h147.9c11 0 20 9 20 20v645.4c-0.1 11.1-9 20-20.1 20z m-127.8-40h107.9V227.8H476.4v605.4zM856.9 873.2H709.1c-11 0-20-9-20-20V607.6c0-11 9-20 20-20H857c11 0 20 9 20 20v245.6c-0.1 11.1-9 20-20.1 20z m-127.8-40H837V627.6H729.1v205.6z" fill="#2c2c2c" p-id="7074"></path></svg>